<svg width="200" height="200" viewBox="0 0 200 200" xmlns="http://www.w3.org/2000/svg">
    <defs>
        <linearGradient id="grad" x1="0%" y1="0%" x2="100%" y2="100%">
            <stop offset="0%" style="stop-color:#667eea;stop-opacity:1" />
            <stop offset="100%" style="stop-color:#764ba2;stop-opacity:1" />
        </linearGradient>
    </defs>
    
    <!-- Chat bubble -->
    <path d="M40 60 Q40 40 60 40 L140 40 Q160 40 160 60 L160 120 Q160 140 140 140 L80 140 L60 160 L60 140 Q40 140 40 120 Z" 
          fill="url(#grad)" />
    
    <!-- Lock icon -->
    <rect x="85" y="80" width="30" height="25" rx="3" fill="white" />
    <path d="M90 80 L90 72 Q90 65 100 65 Q110 65 110 72 L110 80" 
          stroke="white" stroke-width="4" fill="none" />
    
    <!-- Lock keyhole -->
    <circle cx="100" cy="90" r="3" fill="#667eea" />
    <rect x="98" y="90" width="4" height="8" fill="#667eea" />
</svg>
